<svg xmlns="http://www.w3.org/2000/svg" xmlns:xlink="http://www.w3.org/1999/xlink" xml:space="preserve" width="20px" height="20px" style="shape-rendering:geometricPrecision; text-rendering:geometricPrecision; image-rendering:optimizeQuality; fill-rule:evenodd; clip-rule:evenodd" viewBox="0 0 4.41293 4.41293">
 <defs>
  <style type="text/css">
   <![CDATA[
    .fil0 {fill:red}
   ]]>
  </style>
 </defs>
 <g id="Слой_x0020_1">
  <metadata id="CorelCorpID_0Corel-Layer"/>
  <path class="fil0" d="M2.54321 0.673956c-0.142739,0.4525 -0.223932,0.932274 -0.233811,1.42956 0.497327,-0.00985652 0.97701,-0.0911615 1.42949,-0.233946l2.25035e-005 0.673596c-0.452522,-0.142807 -0.932206,-0.224112 -1.42953,-0.233991 0.00985652,0.497349 0.0910715,0.977145 0.233856,1.42971l-0.673506 2.25035e-005c0.142829,-0.452567 0.224157,-0.932341 0.234014,-1.42974 -0.497327,0.00987902 -0.977145,0.091184 -1.42971,0.233991l2.25035e-005 -0.673596c0.452567,0.142762 0.932341,0.22409 1.42967,0.233946 -0.00990152,-0.497259 -0.091184,-0.977055 -0.233969,-1.42956l0.673461 0z"/>
  <path class="fil0" d="M2.20646 -3.84675e-016c1.21838,0 2.20646,0.988082 2.20646,2.20646 0,1.21838 -0.988082,2.20646 -2.20646,2.20646 -1.21838,0 -2.20646,-0.988082 -2.20646,-2.20646 0,-1.21838 0.988082,-2.20646 2.20646,-2.20646zm0 0.236534c1.0878,0 1.96993,0.882136 1.96993,1.96993 0,1.0878 -0.882136,1.96993 -1.96993,1.96993 -1.0878,0 -1.96993,-0.882136 -1.96993,-1.96993 0,-1.0878 0.882136,-1.96993 1.96993,-1.96993z"/>
 </g>
<script xmlns=""/></svg>
