<svg xmlns="http://www.w3.org/2000/svg" xmlns:xlink="http://www.w3.org/1999/xlink" xml:space="preserve" width="20px" height="20px" style="shape-rendering:geometricPrecision; text-rendering:geometricPrecision; image-rendering:optimizeQuality; fill-rule:evenodd; clip-rule:evenodd" viewBox="0 0 2.2122 2.2121">
 <defs>
  <style type="text/css">
   <![CDATA[
    .fil1 {fill:none}
    .fil0 {fill:red}
   ]]>
  </style>
 </defs>
 <g id="Слой_x0020_1">
  <metadata id="CorelCorpID_0Corel-Layer"/>
  <path class="fil0" d="M1.27485 0.337839c-0.0715521,0.226828 -0.112252,0.467328 -0.117204,0.716604 0.249299,-0.00494085 0.489753,-0.0456972 0.71657,-0.117272l1.12805e-005 0.337659c-0.226839,-0.0715859 -0.467294,-0.112342 -0.716593,-0.117294 0.00494085,0.24931 0.0456521,0.489821 0.117227,0.716683l-0.337614 1.12805e-005c0.0715972,-0.226862 0.112365,-0.467362 0.117306,-0.716694 -0.249299,0.00495213 -0.489821,0.0457085 -0.716683,0.117294l1.12805e-005 -0.337659c0.226862,0.0715634 0.467362,0.112331 0.71666,0.117272 -0.00496341,-0.249265 -0.0457085,-0.489776 -0.117283,-0.716604l0.337591 0z"/>
  <rect class="fil1" width="2.2122" height="2.2121"/>
 </g>
<script xmlns=""/></svg>
