<svg xmlns="http://www.w3.org/2000/svg" xmlns:xlink="http://www.w3.org/1999/xlink" xml:space="preserve" width="20px" height="20px" style="shape-rendering:geometricPrecision; text-rendering:geometricPrecision; image-rendering:optimizeQuality; fill-rule:evenodd; clip-rule:evenodd" viewBox="0 0 3.07145 3.07132">
 <defs>
  <style type="text/css">
   <![CDATA[
    .fil0 {fill:none}
    .fil1 {fill:red}
   ]]>
  </style>
 </defs>
 <g id="Слой_x0020_1">
  <metadata id="CorelCorpID_0Corel-Layer"/>
  <rect class="fil0" width="3.07145" height="3.07131"/>
  <path class="fil1" d="M1.7701 0.469075c-0.0993438,0.314931 -0.155852,0.648843 -0.162728,0.994941 0.346129,-0.00685994 0.679979,-0.0634466 0.994894,-0.162822l1.5662e-005 0.468809c-0.314946,-0.0993908 -0.648796,-0.155977 -0.994926,-0.162853 0.00685994,0.346145 0.0633839,0.680073 0.162759,0.995051l-0.468747 1.5662e-005c0.0994064,-0.314978 0.156009,-0.64889 0.162869,-0.995066 -0.346129,0.0068756 -0.680073,0.0634622 -0.995051,0.162853l1.5662e-005 -0.468809c0.314978,0.0993594 0.64889,0.155962 0.995019,0.162822 -0.00689126,-0.346082 -0.0634622,-0.680011 -0.162837,-0.994941l0.468715 0z"/>
  <path class="fil1" d="M3.07139 1.53567c0,0.847969 -0.687685,1.53565 -1.53565,1.53565 -0.847969,0 -1.53565,-0.687685 -1.53565,-1.53565l0.164623 0c0,0.757083 0.613949,1.37103 1.37103,1.37103 0.757083,0 1.37103,-0.613949 1.37103,-1.37103l0.164623 0z"/>
 </g>
<script xmlns=""/></svg>
