<!-- <svg xmlns="http://www.w3.org/2000/svg" viewBox="0 0 512 512">
<path fill="#cecece" d="M152 120c-26.51 0-48 21.49-48 48s21.49 48 48 48s48-21.49 48-48S178.5 120 152 120zM447.1 32h-384C28.65 32-.0091 60.65-.0091 96v320c0 35.35 28.65 64 63.1 64h384c35.35 0 64-28.65 64-64V96C511.1 60.65 483.3 32 447.1 32zM463.1 409.3l-136.8-185.9C323.8 218.8 318.1 216 312 216c-6.113 0-11.82 2.768-15.21 7.379l-106.6 144.1l-37.09-46.1c-3.441-4.279-8.934-6.809-14.77-6.809c-5.842 0-11.33 2.529-14.78 6.809l-75.52 93.81c0-.0293 0 .0293 0 0L47.99 96c0-8.822 7.178-16 16-16h384c8.822 0 16 7.178 16 16V409.3z"/></svg> -->

<svg xmlns="http://www.w3.org/2000/svg" viewBox="0 0 576 512">
<path fill="#cecece" d="M512 32H160c-35.35 0-64 28.65-64 64v224c0 35.35 28.65 64 64 64H512c35.35 0 64-28.65 64-64V96C576 60.65 547.3 32 512 32zM528 320c0 8.822-7.178 16-16 16h-16l-109.3-160.9C383.7 170.7 378.7 168 373.3 168c-5.352 0-10.35 2.672-13.31 7.125l-62.74 94.11L274.9 238.6C271.9 234.4 267.1 232 262 232c-5.109 0-9.914 2.441-12.93 6.574L176 336H160c-8.822 0-16-7.178-16-16V96c0-8.822 7.178-16 16-16H512c8.822 0 16 7.178 16 16V320zM224 112c-17.67 0-32 14.33-32 32s14.33 32 32 32c17.68 0 32-14.33 32-32S241.7 112 224 112zM456 480H120C53.83 480 0 426.2 0 360v-240C0 106.8 10.75 96 24 96S48 106.8 48 120v240c0 39.7 32.3 72 72 72h336c13.25 0 24 10.75 24 24S469.3 480 456 480z"/></svg>