<svg xmlns="http://www.w3.org/2000/svg" xmlns:xlink="http://www.w3.org/1999/xlink" xml:space="preserve" width="17px" height="20px" style="shape-rendering:geometricPrecision; text-rendering:geometricPrecision; image-rendering:optimizeQuality; fill-rule:evenodd; clip-rule:evenodd" viewBox="0 0 8.11371 9.4647">
 <defs>
  <style type="text/css">
   <![CDATA[
    .fil0 {fill:black}
   ]]>
  </style>
 </defs>
 <g id="Слой_x0020_1">
  <metadata id="CorelCorpID_0Corel-Layer"/>
  <g id="_422333512">
   <path id="_232591216" class="fil0" d="M1.20907 4.73235c0.00364654,-5.3989 3.36173,-4.25149 6.28597,-1.74593l0.618665 0 0 -1.34135 -0.618665 0 0 0.575051c-1.09814,-1.13292 -3.11986,-2.10195 -4.39548,-2.20746 -3.00734,-0.248925 -3.90022,3.24173 -2.35303,4.71968 -1.54719,1.47795 -0.654315,4.96861 2.35303,4.71968 1.27562,-0.10551 3.29734,-1.07453 4.39548,-2.20746l0 0.575051 0.618665 0 0 -1.34135 -0.618665 0c-2.92424,2.50556 -6.28232,3.65297 -6.28597,-1.74593z"/>
   <ellipse id="_234424656" class="fil0" cx="5.89977" cy="4.73235" rx="0.959594" ry="0.959642"/>
   <g>
    <ellipse id="_232661704" class="fil0" cx="3.25493" cy="2.74345" rx="0.959594" ry="0.959642"/>
    <ellipse id="_232661560" class="fil0" cx="3.25493" cy="6.72125" rx="0.959594" ry="0.959642"/>
   </g>
  </g>
 </g>
<script xmlns=""/></svg>
